<svg id="Trust4Leaders_Logo_Horizontal" data-name="Trust4Leaders Logo Horizontal" xmlns="http://www.w3.org/2000/svg" xmlns:xlink="http://www.w3.org/1999/xlink" viewBox="0 0 469.37 75.75"><defs><style>.cls-1{fill:url(#linear-gradient);}.cls-2,.cls-3,.cls-4,.cls-5,.cls-6,.cls-7{opacity:0.2;isolation:isolate;}.cls-2{fill:url(#linear-gradient-2);}.cls-3{fill:url(#linear-gradient-3);}.cls-4{fill:url(#linear-gradient-4);}.cls-5{fill:url(#linear-gradient-5);}.cls-6{fill:url(#linear-gradient-6);}.cls-7{fill:url(#linear-gradient-7);}.cls-8{fill:white;}.cls-9{fill:url(#linear-gradient-8);}</style><linearGradient id="linear-gradient" y1="38.28" x2="85.82" y2="38.28" gradientTransform="matrix(1, 0, 0, -1, 0, 76.16)" gradientUnits="userSpaceOnUse"><stop offset="0.29" stop-color="#da6c94"/><stop offset="0.81" stop-color="#f17522"/></linearGradient><linearGradient id="linear-gradient-2" x1="60.38" y1="31.21" x2="57.44" y2="26.13" gradientTransform="matrix(1, 0, 0, -1, 0, 76.16)" gradientUnits="userSpaceOnUse"><stop offset="0.36" stop-color="#772c00"/><stop offset="0.81" stop-color="#f26522" stop-opacity="0"/></linearGradient><linearGradient id="linear-gradient-3" x1="49.7" y1="9.45" x2="54.49" y2="2.61" gradientTransform="matrix(1, 0, 0, -1, 0, 76.16)" gradientUnits="userSpaceOnUse"><stop offset="0.29" stop-color="#772c00"/><stop offset="0.81" stop-color="#f26522" stop-opacity="0"/></linearGradient><linearGradient id="linear-gradient-4" x1="35.4" y1="12.12" x2="33.81" y2="18.03" xlink:href="#linear-gradient-3"/><linearGradient id="linear-gradient-5" x1="58.59" y1="41.1" x2="60.36" y2="47.7" xlink:href="#linear-gradient-2"/><linearGradient id="linear-gradient-6" x1="29.27" y1="39.98" x2="35.18" y2="39.67" xlink:href="#linear-gradient-3"/><linearGradient id="linear-gradient-7" x1="20.34" y1="33.44" x2="15" y2="33.44" gradientTransform="matrix(1, 0, 0, -1, 0, 76.16)" gradientUnits="userSpaceOnUse"><stop offset="0.33" stop-color="#772c00"/><stop offset="0.43" stop-color="#843204" stop-opacity="0.89"/><stop offset="0.6" stop-color="#a8430d" stop-opacity="0.6"/><stop offset="0.84" stop-color="#e15d1d" stop-opacity="0.14"/><stop offset="0.9" stop-color="#f26522" stop-opacity="0"/></linearGradient><linearGradient id="linear-gradient-8" x1="244.02" y1="38.36" x2="270.48" y2="38.36" xlink:href="#linear-gradient"/></defs><g id="Layer_4" data-name="Layer 4"><path class="cls-1" d="M64.29,75.75c-1.65,0-3.35,0-5.1-.17a54.67,54.67,0,0,1-16.88-3.69,51.43,51.43,0,0,1-16.49,3.3A76.41,76.41,0,0,1,3.64,72.82L0,71.82.15,68c0-.3,1.18-22.57,19.6-32.61C21.42,20.74,32.09,8.25,39.66,2.31l3-2.31,3,2.29c7.78,6,18.84,19,19.66,34.59,13.77,8.3,19.25,22.9,20.16,31.88l.43,4.17-4.08,1A81.37,81.37,0,0,1,64.29,75.75ZM53.42,65.08a67.37,67.37,0,0,0,21.49.21A34.86,34.86,0,0,0,64,47.79a37.5,37.5,0,0,1-3.18,7.83A35,35,0,0,1,53.42,65.08Zm-43.08-.63a67.46,67.46,0,0,0,15.28,1.11,50.74,50.74,0,0,0,5.5-.57,34.8,34.8,0,0,1-7.25-9.17,35.31,35.31,0,0,1-3.53-9.2,26.57,26.57,0,0,0-5.93,7A35.93,35.93,0,0,0,10.34,64.45ZM29.27,41.82A25.82,25.82,0,0,0,42.38,61.23a25.12,25.12,0,0,0,10-10.15,27.29,27.29,0,0,0,3-8.35,39.78,39.78,0,0,0-13.65-2.5A38.91,38.91,0,0,0,29.27,41.82ZM40.69,30.56h1.17a51.64,51.64,0,0,1,13.08,1.86,34.54,34.54,0,0,0-4.21-9.88,51.28,51.28,0,0,0-8.1-10c-3.69,3.54-9.9,10.48-12.4,19.05A51,51,0,0,1,40.69,30.56Z"/><path class="cls-2" d="M55.33,42.7c-.16.88-.89,3.41-1.13,4.29,3.35,2,5.49,2.73,8,5.81.39-1,1.51-4,1.8-5A21.2,21.2,0,0,0,55.33,42.7Z"/><path class="cls-3" d="M53.42,65.08c.62.1,6.08.77,6.72.84a54.27,54.27,0,0,1-7.45,8.84c-1.89-.47-8.66-2.23-10.38-2.91A38.84,38.84,0,0,0,53.42,65.08Z"/><path class="cls-4" d="M37.87,58.08c-2,1-7.29,1.32-11.26,2,.27.26,4.2,4.64,4.48,4.89h.53s6.6-1.25,10.76-3.73C41.94,61,38.34,58.37,37.87,58.08Z"/><path class="cls-5" d="M54.94,32.42S62,34.69,65.23,36.84c0-.34-1-7-1.06-7.3-2.67-1-5.78-.68-10.75-1.76C53.53,28.17,54.85,32.08,54.94,32.42Z"/><path class="cls-6" d="M29.27,41.82c.56-.18,5.12-1.1,5.7-1.25-.2-2.93-.42-6.39-.4-9.75-.42.08-3.93.68-4.34.77A28.48,28.48,0,0,0,29.27,41.82Z"/><path class="cls-7" d="M16.87,50.08c.56-.56,2.86-3,3.47-3.5a43.58,43.58,0,0,1-.59-11.23c-.73.4-4,2.64-4.68,3.07C14.65,41.21,16.33,45.87,16.87,50.08Z"/><path class="cls-8" d="M118.28,58.4c-7.28,0-12.13-4.93-12.13-10.51V33.47c0-.91-.59-1.43-1.62-1.43h-1.59c-1,0-1.62-.52-1.62-1.42V29.19c0-.91.59-1.43,1.62-1.43h1.62c1,0,1.62-.52,1.62-1.43v-.25c0-.91.12-9.21.12-9.21,6.09,0,5.54,8.3,5.54,9.21v.27c0,.91.59,1.43,1.62,1.43h8.09c1,0,1.61.52,1.61,1.43v1.43c0,.9-.58,1.42-1.61,1.42h-8.09c-1,0-1.62.52-1.62,1.43v14.4c0,2.92,2.35,5.9,6.47,5.9a6.83,6.83,0,0,0,4.49-1.62,2.09,2.09,0,0,1,2.72-.26l1.47.91a1.25,1.25,0,0,1,.52,1.69,1.39,1.39,0,0,1-.23.31A12,12,0,0,1,118.28,58.4Z"/><path class="cls-8" d="M229.12,58.4c-7.28,0-12.14-4.93-12.14-10.51V33.47c0-.91-.59-1.43-1.61-1.43h-1.62c-1,0-1.62-.52-1.62-1.42V29.19c0-.91.59-1.43,1.62-1.43h1.62c1,0,1.61-.52,1.61-1.43v-.25c0-.91.12-9.21.12-9.21,6.09,0,5.54,8.3,5.54,9.21v.27c0,.91.59,1.43,1.62,1.43h8.09c1,0,1.62.52,1.62,1.43v1.43c0,.9-.59,1.42-1.62,1.42h-8.09c-1,0-1.62.52-1.62,1.43v14.4c0,2.92,2.36,5.9,6.48,5.9a6.8,6.8,0,0,0,4.48-1.62,2.09,2.09,0,0,1,2.72-.26l1.47.91a1.25,1.25,0,0,1,.53,1.69,1.39,1.39,0,0,1-.23.31A12.09,12.09,0,0,1,229.12,58.4Z"/><path class="cls-8" d="M153.06,33.41a1.76,1.76,0,0,1-2.28.52,16,16,0,0,0-7.65-2.21,6.09,6.09,0,0,0-6.47,5.91v18.7c0,.9-.59,1.42-1.61,1.42h-2.43c-1,0-1.62-.52-1.62-1.42V37.63c0-5.55,4.86-10.55,12.13-10.55a20.49,20.49,0,0,1,10.3,3,1.35,1.35,0,0,1,.63,1.8l-.12.2Z"/><path class="cls-8" d="M179.68,57.75h-1.91a1.37,1.37,0,0,1-1.18-.58.71.71,0,0,0-1-.27h0a13.45,13.45,0,0,1-6.4,1.49c-7.28,0-12.13-4.93-12.13-10.51V29.19c0-.91.59-1.43,1.62-1.43h2.43c1,0,1.61.52,1.61,1.43v18.7c0,2.92,2.36,5.9,6.47,5.9s6.48-3,6.48-5.9V29.19c0-.91.58-1.43,1.61-1.43h2.43c1,0,1.62.52,1.62,1.43V56.33C181.3,57.23,180.71,57.75,179.68,57.75Z"/><path class="cls-8" d="M198.72,58.4a14,14,0,0,1-11.78-5.9,1.28,1.28,0,0,1,.14-1.81,1.53,1.53,0,0,1,.3-.19l1.69-1a1.59,1.59,0,0,1,2.13.39,9.8,9.8,0,0,0,7.5,4c4.64,0,6.47-2.66,6.47-5.13,0-4.41-6.47-4.41-6.47-4.41-7.2-.32-11.32-3.64-11.32-8.57,0-4.16,3.75-8.57,11.32-8.57a12.87,12.87,0,0,1,9.2,3.51,1.12,1.12,0,0,1,.27,1.55,1.2,1.2,0,0,1-.5.39l-1.73,1a2,2,0,0,1-2.28-.2,7.55,7.55,0,0,0-4.93-1.82c-4.56,0-5.88,2.67-5.88,4,0,3.83,5.88,4,5.88,4,6.47.33,12.14,2.86,12.14,9C210.86,54.18,206.37,58.4,198.72,58.4Z"/><path class="cls-9" d="M268.87,46.7h-2c-.52,0-.81.26-.81.72V58.13c0,.91-.59,1.43-1.62,1.43h-4.63c-1,0-1.62-.52-1.62-1.43V47.42c0-.46-.29-.72-.81-.72H245.64c-1,0-1.62-.52-1.62-1.43V42.48a6,6,0,0,1,.44-2.34l10-22.67a2.24,2.24,0,0,1,2.2-1.43h4.42c1.17,0,1.76.85,1.39,1.63L252.52,40c-.22.52.07.91.74.91h4.11c.52,0,.81-.26.81-.72a17.81,17.81,0,0,1,2.2-7c2.52-4.39,5.81-4.48,5.81-4.48,0,.94-.14,5-.14,5.87v5.58c0,.46.29.72.81.72h2c1,0,1.62.52,1.62,1.43v3C270.49,46.18,269.94,46.7,268.87,46.7Z"/><path class="cls-8" d="M291.94,59.41c-7.28,0-12.13-4.93-12.13-10.52V23.08c0-.91.11-6.22.11-6.22,5.49,0,5.55,5.31,5.55,6.22V48.89c0,2.93,2.36,5.91,6.47,5.91a6.83,6.83,0,0,0,4.49-1.62,2.09,2.09,0,0,1,2.72-.26l1.47.91a1.25,1.25,0,0,1,.52,1.69,1.39,1.39,0,0,1-.23.31A12.05,12.05,0,0,1,291.94,59.41Z"/><path class="cls-8" d="M324.21,44.9H310.46c-1,0-1.61.52-1.61,1.43v1.56c0,2.92,2.35,5.9,6.47,5.9A9.39,9.39,0,0,0,322.67,50a1.69,1.69,0,0,1,2.21-.26l1.61,1a1.37,1.37,0,0,1,.45,1.88l-.08.12a13.54,13.54,0,0,1-11.54,5.64c-7.28,0-12.14-4.93-12.14-10.51V37.63c0-5.55,4.86-10.55,12.14-10.55s12.13,5,12.13,10.55v4.45C327.45,43.86,326.27,44.9,324.21,44.9Zm-2.42-7.27c0-2.92-2.36-5.91-6.47-5.91a6.09,6.09,0,0,0-6.47,5.91v1.55c0,.91.58,1.43,1.61,1.43h9.71c1,0,1.62-.52,1.62-1.43Z"/><path class="cls-8" d="M353.94,57.75H352a1.37,1.37,0,0,1-1.18-.58.71.71,0,0,0-1-.27h0a13.38,13.38,0,0,1-6.39,1.49c-7.28,0-12.14-4.93-12.14-10.51s4.86-10.52,12.14-10.52a14.46,14.46,0,0,1,5.44,1c.59.26,1-.13,1-.78,0-2.92-2.36-5.91-6.47-5.91a14,14,0,0,0-6.13,1.4,1.44,1.44,0,0,1-2-.47l-.09-.18-.95-1.49a1.39,1.39,0,0,1,.55-1.89l.26-.11a18.27,18.27,0,0,1,8.31-1.86c7.28,0,12.13,4.93,12.13,10.52V56.3C355.54,57.23,354.94,57.75,353.94,57.75ZM343.41,42c-4.12,0-6.48,3-6.48,5.91s2.36,5.9,6.48,5.9,6.47-3,6.47-5.9A6.1,6.1,0,0,0,343.41,42Z"/><path class="cls-8" d="M383.48,57.75h-1.91a1.37,1.37,0,0,1-1.18-.58.71.71,0,0,0-1-.27h0a13.38,13.38,0,0,1-6.45,1.49c-7.28,0-12.14-4.93-12.14-10.51V37.63c0-5.55,4.89-10.55,12.14-10.55a15.42,15.42,0,0,1,5.29,1c.66.26,1.18-.07,1.18-.59V22.08c0-.91,0-4.95,5.66-5.21V56.33C385.1,57.23,384.51,57.75,383.48,57.75Zm-4-20.12c0-2.92-2.36-5.91-6.47-5.91s-6.48,3-6.48,5.91V47.89c0,2.92,2.36,5.9,6.48,5.9s6.47-3,6.47-5.9Z"/><path class="cls-8" d="M411.42,44.9H397.67c-1,0-1.62.52-1.62,1.43v1.56c0,2.92,2.36,5.9,6.48,5.9A9.39,9.39,0,0,0,409.88,50a1.67,1.67,0,0,1,2.2-.26l1.62,1a1.37,1.37,0,0,1,.45,1.88l-.08.12a13.54,13.54,0,0,1-11.54,5.64c-7.29,0-12.14-4.93-12.14-10.51V37.63c0-5.55,4.85-10.55,12.14-10.55s12.13,5,12.13,10.55v4.45C414.66,43.86,413.48,44.9,411.42,44.9ZM409,37.63c0-2.92-2.36-5.91-6.47-5.91s-6.48,3-6.48,5.91v1.55c0,.91.59,1.43,1.62,1.43h9.71c1,0,1.62-.52,1.62-1.43Z"/><path class="cls-8" d="M442.6,33.41a1.76,1.76,0,0,1-2.28.52,16,16,0,0,0-7.65-2.21c-4.12,0-6.47,3-6.47,5.91v18.7c0,.9-.59,1.42-1.62,1.42h-2.42c-1,0-1.62-.52-1.62-1.42V37.63c0-5.55,4.85-10.55,12.13-10.55a20.49,20.49,0,0,1,10.27,3,1.35,1.35,0,0,1,.63,1.8l-.12.2Z"/><path class="cls-8" d="M457.23,58.4a14,14,0,0,1-11.76-5.9,1.28,1.28,0,0,1,.14-1.81,1.53,1.53,0,0,1,.3-.19l1.69-1a1.59,1.59,0,0,1,2.13.39,9.8,9.8,0,0,0,7.5,4c4.63,0,6.47-2.66,6.47-5.13,0-4.41-6.47-4.41-6.47-4.41-7.2-.32-11.32-3.64-11.32-8.57,0-4.16,3.75-8.57,11.32-8.57a12.84,12.84,0,0,1,9.19,3.51,1.12,1.12,0,0,1,.28,1.55,1.2,1.2,0,0,1-.5.39l-1.76,1.11a2,2,0,0,1-2.28-.2,7.55,7.55,0,0,0-4.93-1.82c-4.56,0-5.88,2.67-5.88,4,0,3.83,5.88,4,5.88,4,6.47.33,12.14,2.86,12.14,9C469.37,54.18,464.88,58.4,457.23,58.4Z"/></g></svg>